:SAMPLES-PER-SECOND 30
:FULLY-SPECIFIED
:DEGREES
421
root  -9.19958 39.5071 27.1078 -178.177 30.5084 177.132
RightUpLeg  -1.69957 -8.33036 -6.56035
RightLeg  18.63 -6.93349 -2.99287
RightFoot  -12.297 0.0306237 13.6352
RightToes  -1.74624e-010 0 -3.6325e-017
Spine  8.75074 1.62394 4.96152
Spine1  16.1469 4.66031 -6.43037
HEad  -17.3496 19.3272 -8.29687
LeftShoulder1  0.66528 0.581525 -15.9786
LeftArm  13.6555 11.8096 -59.5136
LeftForeArm  82.2708 -79.2838 -95.1044
LeftHand  -0.420347 2.78859 18.5138
RightShoulder  1.04014 1.54022 13.7459
RightArm  8.83904 -2.85365 64.7743
RightForeArm  66.1575 73.8381 130.54
RightHand  -0.152035 -4.11843 -12.6576
LeftUpLeg  -18.7904 -0.429007 5.93829
LeftLeg  24.5821 0.394006 0.524347
LeftFoot  0.39578 1.18204 -11.4926
LeftToes  -5.82109e-011 1.10366e-010 -8.03124e-011
422
root  -9.24978 39.7883 27.228 -178.016 29.877 176.849
RightUpLeg  -3.21409 -11.3412 -7.59008
RightLeg  20.3117 -4.02026 -1.51305
RightFoot  -8.71312 -0.417502 15.0577
RightToes  -1.74624e-010 0 -3.6325e-017
Spine  8.39961 1.37142 4.29345
Spine1  16.0158 4.10478 -5.99053
HEad  -16.7259 19.2301 -8.11012
LeftShoulder1  0.675398 0.541192 -16.0146
LeftArm  14.8042 13.0477 -59.3531
LeftForeArm  84.7884 -79.1433 -98.8793
LeftHand  -0.550473 2.19223 19.8628
RightShoulder  0.945112 1.18266 13.2495
RightArm  8.12014 -4.39361 63.5376
RightForeArm  69.719 72.5708 135.273
RightHand  -0.0514258 -5.05263 -11.8116
LeftUpLeg  -18.2386 0.549889 3.68314
LeftLeg  25.6829 5.43743 3.13466
LeftFoot  2.12265 1.2338 -10.5772
LeftToes  -5.82109e-011 1.10366e-010 -8.03124e-011
423
root  -9.3625 40.0144 27.4511 -177.658 29.078 176.592
RightUpLeg  -7.00632 -14.5683 -8.26844
RightLeg  26.0531 -0.600173 -0.623059
RightFoot  -3.91134 -1.2006 17.928
RightToes  -1.74624e-010 0 -3.6325e-017
Spine  9.45925 1.04502 3.28063
Spine1  14.4019 3.28647 -5.51419
HEad  -16.3804 19.1324 -8.62329
LeftShoulder1  0.689852 0.461282 -15.8797
LeftArm  15.6443 13.8457 -58.4961
LeftForeArm  89.1208 -78.8785 -104.367
LeftHand  -0.645985 1.8175 20.8881
RightShoulder  0.899327 1.10152 12.5459
RightArm  6.81991 -5.63979 61.7263
RightForeArm  74.1549 71.3625 139.06
RightHand  -0.021606 -5.35575 -10.8602
LeftUpLeg  -18.384 2.11145 2.15055
LeftLeg  24.238 10.1702 5.31659
LeftFoot  4.76004 1.19828 -8.6525
LeftToes  -5.82109e-011 1.10366e-010 -8.03124e-011
424
root  -9.55476 39.9983 27.8176 -177.472 28.0996 176.231
RightUpLeg  -12.327 -11.4748 -8.99294
RightLeg  32.4882 -2.29471 -1.84268
RightFoot  -0.871372 -1.80706 19.5498
RightToes  -1.74624e-010 0 -3.6325e-017
Spine  12.2207 0.546054 2.23532
Spine1  11.5858 2.25439 -4.92119
HEad  -16.9598 19.3229 -9.94257
LeftShoulder1  0.706875 0.334083 -15.4761
LeftArm  15.53 13.9372 -56.8756
LeftForeArm  96.5768 -78.4034 -111.866
LeftHand  -0.798155 1.24526 22.2261
RightShoulder  0.902016 1.27818 11.8005
RightArm  5.31169 -5.71684 60.0317
RightForeArm  80.742 70.9361 140.601
RightHand  -0.0643217 -4.84645 -9.94989
LeftUpLeg  -19.4755 3.30605 1.83926
LeftLeg  23.2375 7.15196 3.69058
LeftFoot  5.63469 1.24601 -8.56114
LeftToes  -5.82109e-011 1.10366e-010 -8.03124e-011
425
root  -9.7925 39.6637 28.1927 -177.299 25.9828 175.901
RightUpLeg  -16.8806 -5.0861 -11.2075
RightLeg  34.4031 -5.56372 -4.28402
RightFoot  -1.61914 -1.63047 18.8245
RightToes  -1.74624e-010 0 -3.6325e-017
Spine  15.1407 -0.435706 2.12509
Spine1  9.08984 0.804183 -3.75518
HEad  -18.5439 19.4084 -11.4909
LeftShoulder1  0.730816 0.0857855 -14.4805
LeftArm  14.3787 13.0249 -55.0166
LeftForeArm  104.15 -77.8287 -118.459
LeftHand  -1.09134 0.206384 24.2934
RightShoulder  0.877755 1.3675 10.8506
RightArm  3.57686 -4.63691 58.9174
RightForeArm  87.3449 71.553 139.652
RightHand  -0.113691 -4.25458 -9.99614
LeftUpLeg  -21.2425 2.05614 3.03463
LeftLeg  24.7567 -4.59312 -2.06685
LeftFoot  2.31109 1.571 -13.4822
LeftToes  -5.82109e-011 1.10366e-010 -8.03124e-011
